<mxfile host="65bd71144e" modified="2020-11-02T00:28:26.468Z" agent="5.0 (Windows NT 10.0; Win64; x64) AppleWebKit/537.36 (KHTML, like Gecko) Code/1.50.1 Chrome/83.0.4103.122 Electron/9.2.1 Safari/537.36" version="13.6.5" etag="xZgZ2qZ_yjzudSAoFoEN">
    <diagram id="fBnOUUqHjcIQ887bd5Ay" name="ページ1">
        <mxGraphModel dx="611" dy="792" grid="1" gridSize="10" guides="1" tooltips="1" connect="1" arrows="1" fold="1" page="1" pageScale="1" pageWidth="1169" pageHeight="827" math="0" shadow="0">
            <root>
                <mxCell id="0"/>
                <mxCell id="1" parent="0"/>
                <mxCell id="4" value="client&lt;br style=&quot;font-size: 15px;&quot;&gt;start" style="ellipse;whiteSpace=wrap;html=1;fontSize=15;verticalAlign=middle;" vertex="1" parent="1">
                    <mxGeometry x="560" y="1000" width="120" height="80" as="geometry"/>
                </mxCell>
                <mxCell id="35" value="" style="edgeStyle=orthogonalEdgeStyle;rounded=0;orthogonalLoop=1;jettySize=auto;html=1;fontSize=15;verticalAlign=middle;" edge="1" parent="1" source="5" target="34">
                    <mxGeometry relative="1" as="geometry"/>
                </mxCell>
                <mxCell id="5" value="server&lt;br style=&quot;font-size: 15px;&quot;&gt;start" style="ellipse;whiteSpace=wrap;html=1;fontSize=15;verticalAlign=middle;" vertex="1" parent="1">
                    <mxGeometry x="240" y="160" width="120" height="80" as="geometry"/>
                </mxCell>
                <mxCell id="37" value="" style="edgeStyle=orthogonalEdgeStyle;rounded=0;orthogonalLoop=1;jettySize=auto;html=1;fontSize=15;verticalAlign=middle;" edge="1" parent="1" source="34" target="36">
                    <mxGeometry relative="1" as="geometry"/>
                </mxCell>
                <mxCell id="34" value="Output : s" style="shape=parallelogram;perimeter=parallelogramPerimeter;whiteSpace=wrap;html=1;fixedSize=1;fontSize=15;verticalAlign=middle;" vertex="1" parent="1">
                    <mxGeometry x="240" y="330" width="120" height="60" as="geometry"/>
                </mxCell>
                <mxCell id="43" value="" style="edgeStyle=orthogonalEdgeStyle;rounded=0;orthogonalLoop=1;jettySize=auto;html=1;fontSize=15;verticalAlign=middle;" edge="1" parent="1" source="36" target="42">
                    <mxGeometry relative="1" as="geometry"/>
                </mxCell>
                <mxCell id="36" value="socket&lt;br style=&quot;font-size: 15px;&quot;&gt;プロトコルやドメインを設定してソケットを作る" style="whiteSpace=wrap;html=1;fontSize=15;verticalAlign=middle;" vertex="1" parent="1">
                    <mxGeometry x="200" y="470" width="200" height="60" as="geometry"/>
                </mxCell>
                <mxCell id="45" value="" style="edgeStyle=orthogonalEdgeStyle;rounded=0;orthogonalLoop=1;jettySize=auto;html=1;fontSize=15;verticalAlign=middle;" edge="1" parent="1" source="42" target="44">
                    <mxGeometry relative="1" as="geometry"/>
                </mxCell>
                <mxCell id="42" value="input : s" style="shape=parallelogram;perimeter=parallelogramPerimeter;whiteSpace=wrap;html=1;fixedSize=1;fontSize=15;verticalAlign=middle;" vertex="1" parent="1">
                    <mxGeometry x="240" y="610" width="120" height="60" as="geometry"/>
                </mxCell>
                <mxCell id="47" value="" style="edgeStyle=orthogonalEdgeStyle;rounded=0;orthogonalLoop=1;jettySize=auto;html=1;fontSize=15;verticalAlign=middle;" edge="1" parent="1" source="44" target="46">
                    <mxGeometry relative="1" as="geometry"/>
                </mxCell>
                <mxCell id="44" value="setsockopt&lt;br style=&quot;font-size: 15px;&quot;&gt;アドレスを再利用できるように設定" style="whiteSpace=wrap;html=1;fontSize=15;verticalAlign=middle;" vertex="1" parent="1">
                    <mxGeometry x="200" y="750" width="200" height="60" as="geometry"/>
                </mxCell>
                <mxCell id="49" value="" style="edgeStyle=orthogonalEdgeStyle;rounded=0;orthogonalLoop=1;jettySize=auto;html=1;fontSize=15;verticalAlign=middle;" edge="1" parent="1" source="46" target="48">
                    <mxGeometry relative="1" as="geometry"/>
                </mxCell>
                <mxCell id="46" value="input : s, sa" style="shape=parallelogram;perimeter=parallelogramPerimeter;whiteSpace=wrap;html=1;fixedSize=1;fontSize=15;verticalAlign=middle;" vertex="1" parent="1">
                    <mxGeometry x="240" y="890" width="120" height="60" as="geometry"/>
                </mxCell>
                <mxCell id="51" value="" style="edgeStyle=orthogonalEdgeStyle;rounded=0;orthogonalLoop=1;jettySize=auto;html=1;fontSize=15;verticalAlign=middle;" edge="1" parent="1" source="48" target="50">
                    <mxGeometry relative="1" as="geometry"/>
                </mxCell>
                <mxCell id="48" value="bind&lt;br style=&quot;font-size: 15px;&quot;&gt;ポート番号などを割り当てる" style="whiteSpace=wrap;html=1;fontSize=15;verticalAlign=middle;" vertex="1" parent="1">
                    <mxGeometry x="240" y="1030" width="120" height="60" as="geometry"/>
                </mxCell>
                <mxCell id="56" value="" style="edgeStyle=orthogonalEdgeStyle;rounded=0;orthogonalLoop=1;jettySize=auto;html=1;fontSize=15;verticalAlign=middle;" edge="1" parent="1" source="50" target="55">
                    <mxGeometry relative="1" as="geometry"/>
                </mxCell>
                <mxCell id="50" value="input : s" style="shape=parallelogram;perimeter=parallelogramPerimeter;whiteSpace=wrap;html=1;fixedSize=1;fontSize=15;verticalAlign=middle;" vertex="1" parent="1">
                    <mxGeometry x="240" y="1170" width="120" height="60" as="geometry"/>
                </mxCell>
                <mxCell id="58" value="" style="edgeStyle=orthogonalEdgeStyle;rounded=0;orthogonalLoop=1;jettySize=auto;html=1;fontSize=15;verticalAlign=middle;" edge="1" parent="1" source="55" target="57">
                    <mxGeometry relative="1" as="geometry"/>
                </mxCell>
                <mxCell id="55" value="listen&lt;br style=&quot;font-size: 15px;&quot;&gt;ソケットの待受を開始する" style="whiteSpace=wrap;html=1;fontSize=15;verticalAlign=middle;" vertex="1" parent="1">
                    <mxGeometry x="240" y="1310" width="120" height="60" as="geometry"/>
                </mxCell>
                <mxCell id="60" value="" style="edgeStyle=orthogonalEdgeStyle;rounded=0;orthogonalLoop=1;jettySize=auto;html=1;fontSize=15;verticalAlign=middle;" edge="1" parent="1" source="57" target="59">
                    <mxGeometry relative="1" as="geometry"/>
                </mxCell>
                <mxCell id="57" value="input : s&lt;br style=&quot;font-size: 15px;&quot;&gt;output : ws" style="shape=parallelogram;perimeter=parallelogramPerimeter;whiteSpace=wrap;html=1;fixedSize=1;fontSize=15;verticalAlign=middle;" vertex="1" parent="1">
                    <mxGeometry x="240" y="1450" width="120" height="60" as="geometry"/>
                </mxCell>
                <mxCell id="62" value="" style="edgeStyle=orthogonalEdgeStyle;rounded=0;orthogonalLoop=1;jettySize=auto;html=1;fontSize=15;verticalAlign=middle;" edge="1" parent="1" source="59" target="61">
                    <mxGeometry relative="1" as="geometry"/>
                </mxCell>
                <mxCell id="59" value="accept&lt;br style=&quot;font-size: 15px;&quot;&gt;ソケットに入力があるまで待ち，新たなソケットを返す" style="whiteSpace=wrap;html=1;fontSize=15;verticalAlign=middle;" vertex="1" parent="1">
                    <mxGeometry x="200" y="1590" width="200" height="60" as="geometry"/>
                </mxCell>
                <mxCell id="64" value="" style="edgeStyle=orthogonalEdgeStyle;rounded=0;orthogonalLoop=1;jettySize=auto;html=1;fontSize=15;verticalAlign=middle;" edge="1" parent="1" source="61" target="63">
                    <mxGeometry relative="1" as="geometry"/>
                </mxCell>
                <mxCell id="61" value="input : ws, message" style="shape=parallelogram;perimeter=parallelogramPerimeter;whiteSpace=wrap;html=1;fixedSize=1;fontSize=15;verticalAlign=middle;" vertex="1" parent="1">
                    <mxGeometry x="240" y="1730" width="120" height="60" as="geometry"/>
                </mxCell>
                <mxCell id="66" value="" style="edgeStyle=orthogonalEdgeStyle;rounded=0;orthogonalLoop=1;jettySize=auto;html=1;fontSize=15;verticalAlign=middle;" edge="1" parent="1" source="63" target="65">
                    <mxGeometry relative="1" as="geometry"/>
                </mxCell>
                <mxCell id="102" style="edgeStyle=orthogonalEdgeStyle;rounded=0;orthogonalLoop=1;jettySize=auto;html=1;exitX=1;exitY=0.5;exitDx=0;exitDy=0;fontSize=15;shape=flexArrow;" edge="1" parent="1" source="63" target="82">
                    <mxGeometry relative="1" as="geometry"/>
                </mxCell>
                <mxCell id="63" value="write&lt;br style=&quot;font-size: 15px;&quot;&gt;wsにmessageを書き込む" style="whiteSpace=wrap;html=1;fontSize=15;verticalAlign=middle;" vertex="1" parent="1">
                    <mxGeometry x="240" y="1870" width="120" height="60" as="geometry"/>
                </mxCell>
                <mxCell id="68" value="" style="edgeStyle=orthogonalEdgeStyle;rounded=0;orthogonalLoop=1;jettySize=auto;html=1;fontSize=15;verticalAlign=middle;" edge="1" parent="1" source="65" target="67">
                    <mxGeometry relative="1" as="geometry"/>
                </mxCell>
                <mxCell id="65" value="input : ws" style="shape=parallelogram;perimeter=parallelogramPerimeter;whiteSpace=wrap;html=1;fixedSize=1;fontSize=15;verticalAlign=middle;" vertex="1" parent="1">
                    <mxGeometry x="240" y="2010" width="120" height="60" as="geometry"/>
                </mxCell>
                <mxCell id="69" style="edgeStyle=orthogonalEdgeStyle;rounded=0;orthogonalLoop=1;jettySize=auto;html=1;entryX=0;entryY=0.5;entryDx=0;entryDy=0;fontSize=15;verticalAlign=middle;" edge="1" parent="1" source="67" target="57">
                    <mxGeometry relative="1" as="geometry">
                        <mxPoint x="180" y="1580" as="targetPoint"/>
                        <Array as="points">
                            <mxPoint x="170" y="2180"/>
                            <mxPoint x="170" y="1480"/>
                        </Array>
                    </mxGeometry>
                </mxCell>
                <mxCell id="67" value="shutdown, close&lt;br style=&quot;font-size: 15px;&quot;&gt;通信をやめて，ソケットを閉じる" style="whiteSpace=wrap;html=1;fontSize=15;verticalAlign=middle;" vertex="1" parent="1">
                    <mxGeometry x="200" y="2150" width="200" height="60" as="geometry"/>
                </mxCell>
                <mxCell id="70" value="" style="edgeStyle=orthogonalEdgeStyle;rounded=0;orthogonalLoop=1;jettySize=auto;html=1;fontSize=15;verticalAlign=middle;" edge="1" parent="1" target="72">
                    <mxGeometry relative="1" as="geometry">
                        <mxPoint x="620" y="1080" as="sourcePoint"/>
                    </mxGeometry>
                </mxCell>
                <mxCell id="71" value="" style="edgeStyle=orthogonalEdgeStyle;rounded=0;orthogonalLoop=1;jettySize=auto;html=1;fontSize=15;verticalAlign=middle;" edge="1" parent="1" source="72" target="74">
                    <mxGeometry relative="1" as="geometry"/>
                </mxCell>
                <mxCell id="72" value="Output : s" style="shape=parallelogram;perimeter=parallelogramPerimeter;whiteSpace=wrap;html=1;fixedSize=1;fontSize=15;verticalAlign=middle;" vertex="1" parent="1">
                    <mxGeometry x="560" y="1170" width="120" height="60" as="geometry"/>
                </mxCell>
                <mxCell id="73" value="" style="edgeStyle=orthogonalEdgeStyle;rounded=0;orthogonalLoop=1;jettySize=auto;html=1;fontSize=15;verticalAlign=middle;" edge="1" parent="1" source="74" target="76">
                    <mxGeometry relative="1" as="geometry"/>
                </mxCell>
                <mxCell id="74" value="socket&lt;br style=&quot;font-size: 15px;&quot;&gt;プロトコルやドメインを設定してソケットを作る" style="whiteSpace=wrap;html=1;fontSize=15;verticalAlign=middle;" vertex="1" parent="1">
                    <mxGeometry x="520" y="1310" width="200" height="60" as="geometry"/>
                </mxCell>
                <mxCell id="75" value="" style="edgeStyle=orthogonalEdgeStyle;rounded=0;orthogonalLoop=1;jettySize=auto;html=1;fontSize=15;verticalAlign=middle;" edge="1" parent="1" source="76" target="78">
                    <mxGeometry relative="1" as="geometry"/>
                </mxCell>
                <mxCell id="76" value="input : s, sa(接続先情報)" style="shape=parallelogram;perimeter=parallelogramPerimeter;whiteSpace=wrap;html=1;fixedSize=1;fontSize=15;verticalAlign=middle;" vertex="1" parent="1">
                    <mxGeometry x="520" y="1450" width="200" height="60" as="geometry"/>
                </mxCell>
                <mxCell id="77" value="" style="edgeStyle=orthogonalEdgeStyle;rounded=0;orthogonalLoop=1;jettySize=auto;html=1;fontSize=15;verticalAlign=middle;" edge="1" parent="1" source="78" target="80">
                    <mxGeometry relative="1" as="geometry"/>
                </mxCell>
                <mxCell id="101" style="edgeStyle=orthogonalEdgeStyle;rounded=0;orthogonalLoop=1;jettySize=auto;html=1;exitX=0;exitY=0.5;exitDx=0;exitDy=0;entryX=1;entryY=0.5;entryDx=0;entryDy=0;fontSize=15;shape=flexArrow;" edge="1" parent="1" source="78" target="59">
                    <mxGeometry relative="1" as="geometry"/>
                </mxCell>
                <mxCell id="78" value="connect&lt;br style=&quot;font-size: 15px;&quot;&gt;サーバにソケットを接続する" style="whiteSpace=wrap;html=1;fontSize=15;verticalAlign=middle;" vertex="1" parent="1">
                    <mxGeometry x="560" y="1590" width="120" height="60" as="geometry"/>
                </mxCell>
                <mxCell id="79" value="" style="edgeStyle=orthogonalEdgeStyle;rounded=0;orthogonalLoop=1;jettySize=auto;html=1;fontSize=15;verticalAlign=middle;" edge="1" parent="1" source="80" target="82">
                    <mxGeometry relative="1" as="geometry"/>
                </mxCell>
                <mxCell id="80" value="input : s, buf&lt;br style=&quot;font-size: 15px;&quot;&gt;output : cc" style="shape=parallelogram;perimeter=parallelogramPerimeter;whiteSpace=wrap;html=1;fixedSize=1;fontSize=15;verticalAlign=middle;" vertex="1" parent="1">
                    <mxGeometry x="560" y="1730" width="120" height="60" as="geometry"/>
                </mxCell>
                <mxCell id="81" value="" style="edgeStyle=orthogonalEdgeStyle;rounded=0;orthogonalLoop=1;jettySize=auto;html=1;fontSize=15;verticalAlign=middle;" edge="1" parent="1" source="82" target="84">
                    <mxGeometry relative="1" as="geometry"/>
                </mxCell>
                <mxCell id="82" value="read&lt;br style=&quot;font-size: 15px;&quot;&gt;ソケットから来た通信をbufに書き込む" style="whiteSpace=wrap;html=1;fontSize=15;verticalAlign=middle;" vertex="1" parent="1">
                    <mxGeometry x="520" y="1870" width="200" height="60" as="geometry"/>
                </mxCell>
                <mxCell id="83" value="" style="edgeStyle=orthogonalEdgeStyle;rounded=0;orthogonalLoop=1;jettySize=auto;html=1;fontSize=15;verticalAlign=middle;" edge="1" parent="1" source="84" target="86">
                    <mxGeometry relative="1" as="geometry"/>
                </mxCell>
                <mxCell id="84" value="input : buf, cc" style="shape=parallelogram;perimeter=parallelogramPerimeter;whiteSpace=wrap;html=1;fixedSize=1;fontSize=15;verticalAlign=middle;" vertex="1" parent="1">
                    <mxGeometry x="560" y="2010" width="120" height="60" as="geometry"/>
                </mxCell>
                <mxCell id="85" value="" style="edgeStyle=orthogonalEdgeStyle;rounded=0;orthogonalLoop=1;jettySize=auto;html=1;fontSize=15;verticalAlign=middle;" edge="1" parent="1" source="86">
                    <mxGeometry relative="1" as="geometry">
                        <mxPoint x="620" y="2290" as="targetPoint"/>
                    </mxGeometry>
                </mxCell>
                <mxCell id="86" value="write&lt;br style=&quot;font-size: 15px;&quot;&gt;標準出力にbufの内容を書き込む" style="whiteSpace=wrap;html=1;fontSize=15;verticalAlign=middle;" vertex="1" parent="1">
                    <mxGeometry x="560" y="2150" width="120" height="60" as="geometry"/>
                </mxCell>
                <mxCell id="95" value="" style="edgeStyle=orthogonalEdgeStyle;rounded=0;orthogonalLoop=1;jettySize=auto;html=1;fontSize=15;verticalAlign=middle;" edge="1" parent="1" source="96" target="98">
                    <mxGeometry relative="1" as="geometry"/>
                </mxCell>
                <mxCell id="96" value="input : ws" style="shape=parallelogram;perimeter=parallelogramPerimeter;whiteSpace=wrap;html=1;fixedSize=1;fontSize=15;verticalAlign=middle;" vertex="1" parent="1">
                    <mxGeometry x="560" y="2290" width="120" height="60" as="geometry"/>
                </mxCell>
                <mxCell id="100" value="" style="edgeStyle=orthogonalEdgeStyle;rounded=0;orthogonalLoop=1;jettySize=auto;html=1;fontSize=15;verticalAlign=middle;" edge="1" parent="1" source="98" target="99">
                    <mxGeometry relative="1" as="geometry"/>
                </mxCell>
                <mxCell id="98" value="shutdown, close&lt;br style=&quot;font-size: 15px;&quot;&gt;通信をやめて，ソケットを閉じる" style="whiteSpace=wrap;html=1;fontSize=15;verticalAlign=middle;" vertex="1" parent="1">
                    <mxGeometry x="520" y="2430" width="200" height="60" as="geometry"/>
                </mxCell>
                <mxCell id="99" value="client&lt;br style=&quot;font-size: 15px;&quot;&gt;end" style="ellipse;whiteSpace=wrap;html=1;fontSize=15;verticalAlign=middle;" vertex="1" parent="1">
                    <mxGeometry x="560" y="2560" width="120" height="80" as="geometry"/>
                </mxCell>
            </root>
        </mxGraphModel>
    </diagram>
</mxfile>
